# Blender v2.79 (sub 0) OBJ File: ''
# www.blender.org
mtllib ring.mtl
o Circle
v 0.000000 -0.030500 -1.000000
v -0.195090 -0.030500 -0.980785
v -0.382683 -0.030500 -0.923880
v -0.555570 -0.030499 -0.831470
v -0.707107 -0.030500 -0.707107
v -0.831470 -0.030499 -0.555570
v -0.923880 -0.030500 -0.382683
v -0.980785 -0.030500 -0.195090
v -1.000000 -0.030500 -0.000000
v -0.980785 -0.030499 0.195090
v -0.923880 -0.030500 0.382683
v -0.831470 -0.030499 0.555570
v -0.707107 -0.030500 0.707107
v -0.555570 -0.030499 0.831470
v -0.382683 -0.030500 0.923880
v -0.195090 -0.030500 0.980785
v 0.000000 -0.030499 1.000000
v 0.195091 -0.030499 0.980785
v 0.382684 -0.030500 0.923879
v 0.555571 -0.030499 0.831469
v 0.707107 -0.030499 0.707106
v 0.831470 -0.030500 0.555570
v 0.923880 -0.030499 0.382683
v 0.980785 -0.030500 0.195089
v 1.000000 -0.030499 -0.000001
v 0.980785 -0.030499 -0.195091
v 0.923879 -0.030500 -0.382684
v 0.831469 -0.030499 -0.555571
v 0.707106 -0.030500 -0.707108
v 0.555569 -0.030499 -0.831470
v 0.382682 -0.030499 -0.923880
v 0.195089 -0.030500 -0.980786
v -0.000000 -0.030500 -0.950157
v -0.185367 -0.030500 -0.931900
v -0.363609 -0.030500 -0.877831
v -0.527879 -0.030500 -0.790027
v -0.671863 -0.030500 -0.671863
v -0.790027 -0.030500 -0.527879
v -0.877831 -0.030500 -0.363609
v -0.931900 -0.030500 -0.185367
v -0.950157 -0.030500 -0.000000
v -0.931900 -0.030500 0.185366
v -0.877831 -0.030500 0.363609
v -0.790027 -0.030499 0.527879
v -0.671863 -0.030500 0.671863
v -0.527879 -0.030500 0.790027
v -0.363609 -0.030499 0.877831
v -0.185366 -0.030500 0.931900
v 0.000000 -0.030500 0.950157
v 0.185367 -0.030500 0.931900
v 0.363610 -0.030500 0.877831
v 0.527880 -0.030499 0.790027
v 0.671863 -0.030499 0.671862
v 0.790027 -0.030500 0.527879
v 0.877831 -0.030500 0.363609
v 0.931901 -0.030500 0.185366
v 0.950157 -0.030500 -0.000001
v 0.931900 -0.030500 -0.185367
v 0.877831 -0.030500 -0.363610
v 0.790026 -0.030499 -0.527880
v 0.671862 -0.030500 -0.671864
v 0.527878 -0.030500 -0.790028
v 0.363608 -0.030500 -0.877831
v 0.185365 -0.030500 -0.931901
v 0.000000 0.030500 -1.000000
v -0.195090 0.030500 -0.980785
v -0.382683 0.030500 -0.923880
v -0.555570 0.030499 -0.831470
v -0.707107 0.030500 -0.707107
v -0.831470 0.030499 -0.555570
v -0.923880 0.030500 -0.382683
v -0.980785 0.030500 -0.195090
v -1.000000 0.030500 -0.000000
v -0.980785 0.030499 0.195090
v -0.923880 0.030500 0.382683
v -0.831470 0.030499 0.555570
v -0.707107 0.030500 0.707107
v -0.555570 0.030499 0.831470
v -0.382683 0.030500 0.923880
v -0.195090 0.030500 0.980785
v 0.000000 0.030499 1.000000
v 0.195091 0.030499 0.980785
v 0.382684 0.030500 0.923879
v 0.555571 0.030499 0.831469
v 0.707107 0.030499 0.707106
v 0.831470 0.030500 0.555570
v 0.923880 0.030499 0.382683
v 0.980785 0.030500 0.195089
v 1.000000 0.030499 -0.000001
v 0.980785 0.030499 -0.195091
v 0.923879 0.030500 -0.382684
v 0.831469 0.030499 -0.555571
v 0.707106 0.030500 -0.707108
v 0.555569 0.030499 -0.831470
v 0.382682 0.030499 -0.923880
v 0.195089 0.030500 -0.980786
v -0.000000 0.030500 -0.950157
v -0.185367 0.030500 -0.931900
v -0.363609 0.030500 -0.877831
v -0.527879 0.030500 -0.790027
v -0.671863 0.030500 -0.671863
v -0.790027 0.030500 -0.527879
v -0.877831 0.030500 -0.363609
v -0.931900 0.030500 -0.185367
v -0.950157 0.030500 -0.000000
v -0.931900 0.030500 0.185366
v -0.877831 0.030500 0.363609
v -0.790027 0.030499 0.527879
v -0.671863 0.030500 0.671863
v -0.527879 0.030500 0.790027
v -0.363609 0.030499 0.877831
v -0.185366 0.030500 0.931900
v 0.000000 0.030500 0.950157
v 0.185367 0.030500 0.931900
v 0.363610 0.030500 0.877831
v 0.527880 0.030499 0.790027
v 0.671863 0.030499 0.671862
v 0.790027 0.030500 0.527879
v 0.877831 0.030500 0.363609
v 0.931901 0.030500 0.185366
v 0.950157 0.030500 -0.000001
v 0.931900 0.030500 -0.185367
v 0.877831 0.030500 -0.363610
v 0.790026 0.030499 -0.527880
v 0.671862 0.030500 -0.671864
v 0.527878 0.030500 -0.790028
v 0.363608 0.030500 -0.877831
v 0.185365 0.030500 -0.931901
vn 0.0000 -1.0000 0.0000
vn 0.0000 1.0000 0.0000
vn -0.0980 0.0000 -0.9952
vn -0.2903 0.0000 -0.9569
vn -0.4714 0.0000 -0.8819
vn -0.6344 0.0000 -0.7730
vn -0.7730 0.0000 -0.6344
vn -0.8819 0.0000 -0.4714
vn -0.9569 0.0000 -0.2903
vn -0.9952 0.0000 -0.0980
vn -0.9952 0.0000 0.0980
vn -0.9569 0.0000 0.2903
vn -0.8819 0.0000 0.4714
vn -0.7730 0.0000 0.6344
vn -0.6344 0.0000 0.7730
vn -0.4714 0.0000 0.8819
vn -0.2903 0.0000 0.9569
vn -0.0980 0.0000 0.9952
vn 0.0980 0.0000 0.9952
vn 0.2903 0.0000 0.9569
vn 0.4714 0.0000 0.8819
vn 0.6344 0.0000 0.7730
vn 0.7730 0.0000 0.6344
vn 0.8819 0.0000 0.4714
vn 0.9569 0.0000 0.2903
vn 0.9952 0.0000 0.0980
vn 0.9952 0.0000 -0.0980
vn 0.9569 0.0000 -0.2903
vn 0.8819 0.0000 -0.4714
vn 0.7730 0.0000 -0.6344
vn 0.6344 0.0000 -0.7730
vn 0.4714 0.0000 -0.8819
vn 0.2903 0.0000 -0.9569
vn 0.0980 0.0000 -0.9952
usemtl None
s off
f 9//1 8//1 40//1 41//1
f 23//1 22//1 54//1 55//1
f 10//1 9//1 41//1 42//1
f 24//1 23//1 55//1 56//1
f 11//1 10//1 42//1 43//1
f 25//1 24//1 56//1 57//1
f 12//1 11//1 43//1 44//1
f 26//1 25//1 57//1 58//1
f 13//1 12//1 44//1 45//1
f 27//1 26//1 58//1 59//1
f 14//1 13//1 45//1 46//1
f 28//1 27//1 59//1 60//1
f 15//1 14//1 46//1 47//1
f 2//1 1//1 33//1 34//1
f 29//1 28//1 60//1 61//1
f 16//1 15//1 47//1 48//1
f 3//1 2//1 34//1 35//1
f 30//1 29//1 61//1 62//1
f 17//1 16//1 48//1 49//1
f 4//1 3//1 35//1 36//1
f 31//1 30//1 62//1 63//1
f 18//1 17//1 49//1 50//1
f 5//1 4//1 36//1 37//1
f 32//1 31//1 63//1 64//1
f 19//1 18//1 50//1 51//1
f 6//1 5//1 37//1 38//1
f 1//1 32//1 64//1 33//1
f 20//1 19//1 51//1 52//1
f 7//1 6//1 38//1 39//1
f 21//1 20//1 52//1 53//1
f 8//1 7//1 39//1 40//1
f 22//1 21//1 53//1 54//1
f 73//2 105//2 104//2 72//2
f 87//2 119//2 118//2 86//2
f 74//2 106//2 105//2 73//2
f 88//2 120//2 119//2 87//2
f 75//2 107//2 106//2 74//2
f 89//2 121//2 120//2 88//2
f 76//2 108//2 107//2 75//2
f 90//2 122//2 121//2 89//2
f 77//2 109//2 108//2 76//2
f 91//2 123//2 122//2 90//2
f 78//2 110//2 109//2 77//2
f 92//2 124//2 123//2 91//2
f 79//2 111//2 110//2 78//2
f 66//2 98//2 97//2 65//2
f 93//2 125//2 124//2 92//2
f 80//2 112//2 111//2 79//2
f 67//2 99//2 98//2 66//2
f 94//2 126//2 125//2 93//2
f 81//2 113//2 112//2 80//2
f 68//2 100//2 99//2 67//2
f 95//2 127//2 126//2 94//2
f 82//2 114//2 113//2 81//2
f 69//2 101//2 100//2 68//2
f 96//2 128//2 127//2 95//2
f 83//2 115//2 114//2 82//2
f 70//2 102//2 101//2 69//2
f 65//2 97//2 128//2 96//2
f 84//2 116//2 115//2 83//2
f 71//2 103//2 102//2 70//2
f 85//2 117//2 116//2 84//2
f 72//2 104//2 103//2 71//2
f 86//2 118//2 117//2 85//2
f 1//3 2//3 66//3 65//3
f 2//4 3//4 67//4 66//4
f 3//5 4//5 68//5 67//5
f 4//6 5//6 69//6 68//6
f 5//7 6//7 70//7 69//7
f 6//8 7//8 71//8 70//8
f 7//9 8//9 72//9 71//9
f 8//10 9//10 73//10 72//10
f 9//11 10//11 74//11 73//11
f 10//12 11//12 75//12 74//12
f 11//13 12//13 76//13 75//13
f 12//14 13//14 77//14 76//14
f 13//15 14//15 78//15 77//15
f 14//16 15//16 79//16 78//16
f 15//17 16//17 80//17 79//17
f 16//18 17//18 81//18 80//18
f 17//19 18//19 82//19 81//19
f 18//20 19//20 83//20 82//20
f 19//21 20//21 84//21 83//21
f 20//22 21//22 85//22 84//22
f 21//23 22//23 86//23 85//23
f 22//24 23//24 87//24 86//24
f 23//25 24//25 88//25 87//25
f 24//26 25//26 89//26 88//26
f 25//27 26//27 90//27 89//27
f 26//28 27//28 91//28 90//28
f 27//29 28//29 92//29 91//29
f 28//30 29//30 93//30 92//30
f 29//31 30//31 94//31 93//31
f 30//32 31//32 95//32 94//32
f 31//33 32//33 96//33 95//33
f 32//34 1//34 65//34 96//34
f 34//19 33//19 97//19 98//19
f 35//20 34//20 98//20 99//20
f 36//21 35//21 99//21 100//21
f 37//22 36//22 100//22 101//22
f 38//23 37//23 101//23 102//23
f 39//24 38//24 102//24 103//24
f 40//25 39//25 103//25 104//25
f 41//26 40//26 104//26 105//26
f 42//27 41//27 105//27 106//27
f 43//28 42//28 106//28 107//28
f 44//29 43//29 107//29 108//29
f 45//30 44//30 108//30 109//30
f 46//31 45//31 109//31 110//31
f 47//32 46//32 110//32 111//32
f 48//33 47//33 111//33 112//33
f 49//34 48//34 112//34 113//34
f 50//3 49//3 113//3 114//3
f 51//4 50//4 114//4 115//4
f 52//5 51//5 115//5 116//5
f 53//6 52//6 116//6 117//6
f 54//7 53//7 117//7 118//7
f 55//8 54//8 118//8 119//8
f 56//9 55//9 119//9 120//9
f 57//10 56//10 120//10 121//10
f 58//11 57//11 121//11 122//11
f 59//12 58//12 122//12 123//12
f 60//13 59//13 123//13 124//13
f 61//14 60//14 124//14 125//14
f 62//15 61//15 125//15 126//15
f 63//16 62//16 126//16 127//16
f 64//17 63//17 127//17 128//17
f 33//18 64//18 128//18 97//18
