<svg width="512" height="512" version="1.1" viewBox="0 0 135.47 135.47" xmlns="http://www.w3.org/2000/svg">
 <defs>
  <clipPath id="clipPath24">
   <path d="m36.643 49.556c0.03925 4.7964 15.491 8.6853 34.599 8.6853 19.108 3e-6 34.598-3.8887 34.598-8.6853v-11.601c-1.0052 4.5703-16.084 8.199-34.542 8.199-19.108 0-34.505-5.3628-34.547-7.8322 0.04717 2.8529-0.10879 11.234-0.10879 11.234z" fill="#33984b" style="paint-order:normal"/>
  </clipPath>
  <mask id="mask74" maskUnits="userSpaceOnUse">
   <path d="m71.355-14.975c-19.108 0-34.599 3.8887-34.599 8.6853v57.239c0 4.7966 15.491 8.6847 34.599 8.6847 19.108 0 34.598-3.8882 34.598-8.6847v-57.239c2e-5 -4.7966-15.49-8.6853-34.598-8.6853z" fill="#fff"/>
  </mask>
 </defs>
 <path d="m38.357 38.141c-14.512-1e-6 -26.276 3.8881-26.276 8.6847 0 1.0438 0.24985 1.5695 0.971 2.5883 10.562 14.054 22.251 28.69 32.955 42.408-0.86782 0.97948-1.342 2.012-1.342 3.0804 0 6.2294 15.789 11.279 35.266 11.279 19.477 0 35.266-5.05 35.266-11.279 1e-5 -5.3473-11.646-9.815-27.26-10.976l-25.925-33.316c1.6784-1.144 2.621-2.4275 2.621-3.7843 1.6e-5 -4.7966-11.764-8.6847-26.275-8.6847z"  fill-opacity="0.5"  stroke-opacity="0" fill="#131313" stroke="#131313" stroke-linecap="round" stroke-width="2.6458" style="mix-blend-mode:normal"/>
 <g transform="translate(-2.2682 -.88588)">
  <g>
   <path d="m88.962 81.804c-19.477 0-35.266 5.0495-35.266 11.279l0.20251 4.5367c-3e-6 6.2294 15.789 11.279 35.266 11.279 19.477 0 35.266-5.05 35.266-11.279l-0.2025-4.5367c1e-5 -6.2294-15.789-11.279-35.266-11.279z" fill="#1b1b1b" style="mix-blend-mode:normal"/>
   <path d="m122.81 92.79c0 6.2294-14.393 10.781-33.87 10.781-19.477 0-33.878-4.3633-33.878-10.593-7e-6 -6.2294 14.468-11.232 33.945-11.232 19.477 0 33.804 4.8141 33.804 11.043z" fill="#272727" style="mix-blend-mode:normal"/>
   <path d="m88.784 23.536c-14.512-1e-6 -26.276 3.8887-26.276 8.6853v51.457c0 4.7966 11.764 16.202 26.276 16.202 14.512 0 26.275-3.8882 26.275-8.6847v-58.974c1e-5 -4.7966-11.764-8.6853-26.275-8.6853z" fill="#1b1b1b" style="mix-blend-mode:normal"/>
   <path transform="matrix(.75944 0 0 1 34.594 40.245)" d="m76.876-5.2399 33.029-6.0259 2.2513 70.114-34.942 3.5851z" fill="#272727" mask="url(#mask74)" stroke-linecap="round" stroke-linejoin="round" stroke-width="3.0361" style="mix-blend-mode:normal"/>
   <path d="m113.73 32.298c0 4.7966-10.052 7.3288-24.564 7.3288-14.512 0-25.266-2.6307-25.266-7.4273-7e-6 -4.7966 10.33-8.2681 24.841-8.2681 14.512 3e-6 24.989 3.57 24.989 8.3666z" fill="#272727" style="mix-blend-mode:normal"/>
  </g>
  <path d="m62.423 89.801c0.02981 4.7964 11.764 8.6852 26.276 8.6852 14.512 1e-5 26.275-3.8887 26.275-8.6852v-11.601c-0.7634 4.5703-12.214 8.199-26.232 8.199-14.512 0-26.204-5.3628-26.236-7.8322 0.03582 2.8529-0.08262 11.234-0.08262 11.234z" fill="#33984b" style="mix-blend-mode:normal;paint-order:normal"/>
  <rect transform="matrix(.75944 0 0 1 34.594 40.245)" x="76.853" y="23.483" width="42.296" height="46.565" clip-path="url(#clipPath24)" fill="#5ac54f" style="mix-blend-mode:normal;paint-order:normal"/>
  <path d="m62.509 85.594v5.6012c0 4.7966 11.764 8.6847 26.275 8.6847s26.275-3.8882 26.275-8.6847v-5.7268" fill-opacity="0" stroke="#272727" stroke-linecap="round" stroke-width="2.6458" style="mix-blend-mode:normal"/>
  <path d="m88.784 23.67c-14.512 3e-6 -26.275 3.8887-26.275 8.6853v53.239c-5.4689 1.9869-8.8124 4.5866-8.8124 7.4419l0.20257 4.5367c-3e-6 6.2294 15.789 11.279 35.266 11.279s35.266-5.05 35.266-11.279l-0.20257-4.5367c0-2.9162-3.4897-5.5654-9.1684-7.5675v-53.114c0-4.7966-11.764-8.6853-26.275-8.6853z" fill="none" stroke="#fff" stroke-linecap="round" stroke-width="2.646" style="mix-blend-mode:normal"/>
 </g>
</svg>